PathFileType	4	(X/Y/Z)	c:/Users/goper/Files/vsCode/490R/osim_files/A04/A04_SSWS_06.trc
DataRate	CameraRate	NumFrames	NumMarkers	Units                	OrigDataRate	OrigDataStartFrame	OrigNumFrames
120.00	120.00	7	36	mm	120.0	566	905
                Frame#	Time	LPSIS			LASIS			LTH1			LTH2			LTH3			LTH4			LLFE			LMFE			LSH1			LSH2			LSH3			LSH4			LLMAL			LMMAL			LCAL			LMTP5			LTOE			LMTP1			RPSIS			RASIS			RTH1			RTH2			RTH3			RTH4			RLFE			RMFE			RSH1			RSH2			RSH3			RSH4			RLMAL			RMMAL			RCAL			RMTP1			RTOE			RMTP5		
		X1	Y1	Z1	X2	Y2	Z2	X3	Y3	Z3	X4	Y4	Z4	X5	Y5	Z5	X6	Y6	Z6	X7	Y7	Z7	X8	Y8	Z8	X9	Y9	Z9	X10	Y10	Z10	X11	Y11	Z11	X12	Y12	Z12	X13	Y13	Z13	X14	Y14	Z14	X15	Y15	Z15	X16	Y16	Z16	X17	Y17	Z17	X18	Y18	Z18	X19	Y19	Z19	X20	Y20	Z20	X21	Y21	Z21	X22	Y22	Z22	X23	Y23	Z23	X24	Y24	Z24	X25	Y25	Z25	X26	Y26	Z26	X27	Y27	Z27	X28	Y28	Z28	X29	Y29	Z29	X30	Y30	Z30	X31	Y31	Z31	X32	Y32	Z32	X33	Y33	Z33	X34	Y34	Z34	X35	Y35	Z35	X36	Y36	Z36

566	4.70833	-552.29266	1057.11768	359.65350	-777.36969	1014.46655	435.34390	-809.87476	670.41119	463.69446	-834.11847	633.79858	462.05872	-862.82593	700.97028	464.34521	-881.22577	660.33838	463.05154	-900.80023	550.26379	449.08508	-916.52808	558.67853	309.38998	-902.93451	442.89130	448.63593	-923.16138	405.04541	446.23349	-960.22742	465.70413	438.12903	-971.28064	423.94299	435.33844	-997.75049	132.30196	400.72144	-1020.60004	144.63867	317.58401	-947.47626	80.49448	341.58371	-1145.55750	111.07675	438.86618	-1189.46545	138.83159	379.43900	-1177.71777	122.45290	333.97620	-546.46802	1048.53577	253.69038	-762.46704	1016.48914	148.87617	-596.27972	734.50452	124.38786	-594.62494	692.15851	127.50692	-657.39160	725.46429	117.20448	-646.47003	679.38470	124.53925	-612.30676	546.42670	150.45718	-625.82214	542.27802	269.25174	-510.29022	348.08920	164.23051	-507.36893	300.92371	172.36838	-569.43231	336.52295	154.48059	-556.61096	290.81339	159.35422	-498.60126	106.42836	167.35457	-535.89587	112.12757	297.94907	-431.74402	66.34030	249.84947	-656.49585	54.15936	270.58078	-676.84088	75.35329	222.13733	-638.16589	50.49472	151.86908
567	4.71667	-562.51471	1055.00098	360.23621	-787.96039	1012.19464	435.62277	-816.71936	666.17438	462.28171	-840.69757	629.30963	460.24472	-869.81128	696.08392	462.38757	-888.08807	655.66351	461.14749	-906.43243	546.11340	446.92712	-923.63922	555.41541	307.38416	-912.53326	438.65396	446.50217	-934.16327	401.86829	444.17972	-969.14490	463.90128	436.52859	-981.72546	422.59042	433.92288	-1019.56415	132.11087	399.61301	-1043.07605	145.44946	316.49353	-971.39502	78.32485	340.12463	-1167.82446	116.55770	438.93704	-1211.07092	146.27696	379.97665	-1200.86279	130.11067	334.79016	-556.34546	1046.72107	254.23933	-772.42590	1014.86902	149.14993	-603.06897	734.24615	124.64424	-601.07935	691.91132	127.75912	-664.11536	724.71393	117.32332	-652.63373	678.58289	124.72163	-617.30243	545.98053	150.59026	-631.21350	541.83032	269.38510	-513.24756	348.63037	164.49420	-509.86038	301.43372	172.53143	-572.48114	336.45151	154.53104	-558.96912	290.91190	159.49335	-499.24060	107.06891	167.44235	-536.64001	112.37918	297.99997	-432.10626	67.19702	249.96561	-656.65125	53.86170	270.59174	-677.09216	75.06612	222.10860	-638.16534	50.43166	151.86555
568	4.72500	-572.63635	1053.00391	360.97705	-798.48871	1009.90881	435.82697	-823.64252	661.87811	460.63541	-847.45148	624.89911	458.37891	-877.05774	691.52319	460.61407	-895.08478	650.90808	459.25366	-912.05731	542.00006	444.63455	-930.54266	552.02802	305.10730	-921.74567	434.82544	444.23480	-944.69128	398.79211	442.10992	-977.54755	461.95761	434.92145	-991.55658	421.20282	432.51987	-1040.18567	131.88268	398.71310	-1063.62244	146.35333	316.21808	-995.13190	76.76954	338.12823	-1188.43396	121.82742	439.20975	-1230.87280	153.48730	380.71774	-1221.49841	137.30702	334.94336	-566.23743	1044.84705	255.02571	-782.23004	1013.07123	149.47095	-610.00684	733.95966	124.83693	-607.72760	691.56531	128.03587	-671.06787	723.76074	117.56592	-659.37000	677.91840	124.51393	-622.68414	545.45337	150.84622	-636.98877	541.12598	269.45282	-516.37347	349.13596	164.70258	-512.57471	302.02115	172.79568	-575.44562	336.35272	154.69896	-561.55688	290.99368	159.62321	-499.85904	107.74969	167.58023	-537.58087	112.63700	297.97177	-432.44489	68.23396	250.02202	-656.78223	53.52729	270.58218	-677.09949	74.72660	222.62979	-638.35382	50.30647	151.83101
569	4.73333	-583.11694	1050.83020	361.92194	-809.11255	1007.51636	436.00821	-830.78973	657.71820	458.69470	-854.43475	620.54449	456.24817	-884.50104	686.89374	458.74277	-902.23401	646.22498	457.23221	-917.82587	538.08344	442.28110	-937.32086	548.23383	303.96774	-930.68134	431.51419	442.13828	-955.07062	395.96457	440.17093	-985.97968	460.14343	433.21161	-1001.19458	419.82275	430.79251	-1058.65991	131.74495	398.28812	-1082.55017	147.44380	315.49774	-1016.11481	75.34158	336.97586	-1207.02893	126.92417	439.69781	-1248.85828	160.26901	381.48392	-1240.36169	143.89503	335.93433	-576.31769	1042.94714	255.97794	-792.03937	1011.22040	149.75720	-617.29919	733.58093	125.04961	-614.57886	691.22858	128.31532	-678.23193	722.84753	117.82486	-666.12762	677.10248	124.78499	-628.04913	544.98590	150.96968	-643.09863	540.42963	269.44427	-519.70312	349.67157	164.97998	-515.84869	302.63324	172.98393	-578.38684	336.21585	154.85063	-564.17242	291.07898	159.82091	-500.72034	108.49140	167.74887	-538.50977	112.96225	298.04379	-432.88593	69.34254	250.19543	-656.95447	53.22245	270.62903	-677.47290	74.50890	222.25591	-638.42712	50.24807	151.76361
570	4.74167	-593.67822	1048.66785	362.97977	-820.10553	1005.23334	436.22119	-838.43939	653.66376	456.82047	-861.59851	616.29926	453.93475	-892.25867	682.31238	456.75797	-909.63556	641.55316	454.89203	-923.89911	534.49054	439.78128	-943.81702	544.77655	301.55350	-940.98590	427.54456	439.58432	-964.88794	393.43472	438.28253	-994.65143	458.17526	431.08942	-1010.48871	418.44330	429.13211	-1075.48877	131.63161	397.65775	-1099.52026	148.09836	314.92111	-1035.43909	73.68922	336.03378	-1223.49292	131.87491	440.30914	-1264.67603	166.14615	382.36465	-1257.26746	149.78009	336.90921	-586.52026	1041.01074	257.05212	-802.03162	1009.45380	150.02914	-624.81738	733.09985	125.31985	-621.58685	690.77008	128.56830	-685.55475	721.89178	118.07003	-673.02277	676.23846	124.99127	-633.66064	544.45422	151.10991	-649.48810	539.69458	269.42636	-523.10956	350.27499	165.32791	-518.74689	303.16989	173.23656	-581.78741	336.32382	154.94206	-567.01099	291.14774	159.99017	-501.50439	109.33620	167.91931	-539.44348	113.30302	298.14941	-433.39981	70.43069	250.38980	-657.12799	52.94306	270.67847	-677.65094	74.15114	222.27061	-638.51300	50.17451	151.67413
571	4.75000	-604.29004	1046.58411	364.18011	-830.99335	1002.97351	436.39557	-846.40051	649.86249	454.96762	-869.32031	612.37854	451.69272	-900.47418	678.21454	454.65765	-917.53046	637.28784	452.41669	-930.25751	530.97253	437.22760	-950.51788	541.33844	299.10706	-948.14771	425.11087	437.85880	-974.21680	390.89166	436.39670	-1002.51569	456.12823	429.19131	-1019.30450	416.80905	427.25214	-1090.35010	130.93208	396.53336	-1114.46265	147.92253	314.46631	-1052.60413	71.48627	335.37204	-1237.89038	136.40279	440.92847	-1278.39099	171.52580	383.06985	-1271.88367	154.95291	337.64661	-596.69794	1039.17029	258.31433	-812.02594	1007.67139	150.27818	-632.33643	732.66736	125.62097	-628.71320	690.32568	128.91698	-692.82977	720.86395	118.23566	-680.04242	675.31726	125.19244	-639.30554	543.79486	151.28755	-655.85114	538.85120	269.45996	-526.70972	350.77850	165.58304	-521.60571	303.84357	173.46146	-585.02655	336.15723	155.22121	-570.45172	291.46478	159.79791	-503.41879	112.30590	165.39655	-540.39813	113.65090	298.16437	-433.88284	71.64261	250.49800	-657.26428	52.62067	270.74954	-677.77618	73.78938	222.25800	-638.82770	50.13522	151.90411
572	4.75833	-615.03735	1044.41333	365.49011	-842.10126	1000.87073	436.58008	-854.61829	646.44604	453.18884	-877.24573	608.93408	449.31323	-909.06036	674.54272	452.50623	-925.72919	633.48859	449.87921	-936.75885	527.59351	434.78613	-957.64386	537.87866	296.72147	-956.51599	422.04498	435.71002	-982.92114	388.13104	434.49609	-1010.05170	454.12662	427.38425	-1027.66174	414.85440	425.64941	-1102.92615	129.44751	395.80920	-1127.37061	146.66179	313.79102	-1067.88525	68.22329	334.85046	-1249.83643	140.27550	441.30725	-1289.76904	177.49187	384.31421	-1283.96716	159.23421	338.01978	-606.85217	1037.31067	259.78366	-822.02472	1005.91968	150.50081	-639.83240	732.14398	125.99825	-636.16089	690.12463	129.14526	-700.22357	719.76740	118.43959	-687.08038	674.36322	125.44909	-645.04248	543.17175	151.53780	-662.35742	538.05035	269.40402	-530.29333	351.37033	165.78584	-524.41266	304.51257	173.64789	-588.60608	336.14215	155.29980	-573.27454	291.57071	160.14861	-504.22772	112.95899	165.50685	-541.40021	114.10369	298.20755	-434.33246	72.99316	250.54408	-657.31195	52.48306	270.67984	-677.91528	73.53821	222.22168	-638.95343	50.02208	151.84749
